<svg width="1305" height="978" viewBox="0 0 1305 978" fill="none" xmlns="http://www.w3.org/2000/svg">
<rect width="1305" height="978" fill="#E4FAFD"/>
<path d="M307 147L311.5 138.5L315 146L324 149L315 153L311.5 158.5L307 153L299.5 149L307 147Z" fill="white"/>
<path d="M613.5 69.5L618 61L621.5 68.5L630.5 71.5L621.5 75.5L618 81L613.5 75.5L606 71.5L613.5 69.5Z" fill="white"/>
<path d="M1184.5 200.5L1189 192L1192.5 199.5L1201.5 202.5L1192.5 206.5L1189 212L1184.5 206.5L1177 202.5L1184.5 200.5Z" fill="white"/>
<path d="M401.5 451.5L406 443L409.5 450.5L418.5 453.5L409.5 457.5L406 463L401.5 457.5L394 453.5L401.5 451.5Z" fill="white"/>
<path d="M1136.5 470.5L1141 462L1144.5 469.5L1153.5 472.5L1144.5 476.5L1141 482L1136.5 476.5L1129 472.5L1136.5 470.5Z" fill="white"/>
<path d="M232.5 565.997C222.5 616.997 46.5827 515.936 4 764.997H0.5V977.997H1305V496.997H1304C1304 496.997 1022 747.5 1058 608C1094 468.5 717 423.492 652.5 385.997C588 348.502 649 694.992 520 695.497C391 696.001 242.5 514.997 232.5 565.997Z" fill="#F1DBF0" fill-opacity="0.24"/>
<ellipse cx="111" cy="98.5" rx="10" ry="8.5" fill="white"/>
<ellipse cx="1089" cy="89.5" rx="10" ry="8.5" fill="white"/>
<ellipse cx="509" cy="256.5" rx="10" ry="8.5" fill="white"/>
<ellipse cx="145" cy="453.5" rx="10" ry="8.5" fill="white"/>
</svg>
